<svg width="170" height="72" viewBox="0 0 170 72" fill="none" xmlns="http://www.w3.org/2000/svg">
<path d="M36.2934 70.8052L28.973 60.1818V32.4644V4.74704H49.4278L52.9045 10.9279H36.2934V15.3704H54.8361L58.8923 22.3239H36.2934V70.8052Z" fill="black"/>
<path d="M39.473 71.8644V25.5078H68.4458L65.5485 32.4613H47.1991V36.3243H64.1965L61.6855 43.2778H47.1991V66.8424L39.473 71.8644Z" fill="black"/>
<path fill-rule="evenodd" clip-rule="evenodd" d="M0.0113831 19.7674L19.1335 0.83844L26.2801 4.70149V39.2758L19.1335 34.0606V26.914L9.28268 21.3126L5.22648 25.5619L0.0113831 19.7674ZM18.9403 12.331V20.0571L13.1457 17.1598L18.9403 12.331Z" fill="black"/>
<path d="M94.884 15.8384H91.986L91.23 13.8044H86.082L85.326 15.8384H82.428L87.054 3.83244H90.258L94.884 15.8384ZM90.528 11.5544L88.656 6.38844L86.784 11.5544H90.528ZM98.5487 15.8384H95.9927V3.83244H104.489V6.08244H98.5487V8.60244H104.363V10.8524H98.5487V15.8384ZM116.014 15.8384H113.062L110.704 11.5724H108.832V15.8384H106.276V3.83244H111.892C113.128 3.83244 114.112 4.19244 114.844 4.91244C115.576 5.63244 115.942 6.56244 115.942 7.70244C115.942 8.68644 115.678 9.48444 115.15 10.0964C114.634 10.7084 114.016 11.0984 113.296 11.2664L116.014 15.8384ZM111.532 9.32244C112.048 9.32244 112.474 9.17844 112.81 8.89044C113.146 8.59044 113.314 8.18844 113.314 7.68444C113.314 7.20444 113.146 6.82044 112.81 6.53244C112.474 6.23244 112.048 6.08244 111.532 6.08244H108.832V9.32244H111.532ZM120.398 15.8384H117.842V3.83244H120.398V15.8384ZM128.614 16.0544C126.778 16.0544 125.248 15.4784 124.024 14.3264C122.812 13.1624 122.206 11.6684 122.206 9.84444C122.206 8.00844 122.812 6.51444 124.024 5.36244C125.248 4.21044 126.778 3.63444 128.614 3.63444C130.858 3.63444 132.526 4.61244 133.618 6.56844L131.422 7.64844C131.158 7.14444 130.768 6.73044 130.252 6.40644C129.748 6.07044 129.202 5.90244 128.614 5.90244C127.522 5.90244 126.616 6.27444 125.896 7.01844C125.188 7.76244 124.834 8.70444 124.834 9.84444C124.834 10.9844 125.188 11.9264 125.896 12.6704C126.616 13.4144 127.522 13.7864 128.614 13.7864C129.202 13.7864 129.748 13.6244 130.252 13.3004C130.768 12.9644 131.158 12.5444 131.422 12.0404L133.618 13.1024C132.502 15.0704 130.834 16.0544 128.614 16.0544ZM146.212 15.8384H143.314L142.558 13.8044H137.41L136.654 15.8384H133.756L138.382 3.83244H141.586L146.212 15.8384ZM141.856 11.5544L139.984 6.38844L138.112 11.5544H141.856Z" fill="black"/>
<path d="M86.244 41.2474H83.688V29.2414H92.184V31.4914H86.244V34.0114H92.058V36.2614H86.244V41.2474ZM96.5272 41.2474H93.9712V29.2414H96.5272V41.2474ZM109.657 41.2474H107.191L101.467 33.4174V41.2474H98.9107V29.2414H101.539L107.101 36.7834V29.2414H109.657V41.2474ZM117.37 41.2474H114.796V31.4914H111.286V29.2414H120.862V31.4914H117.37V41.2474ZM130.997 41.2474H122.5V29.2414H130.997V31.4914H125.057V34.0114H130.871V36.2614H125.057V38.9974H130.997V41.2474ZM138.827 41.4634C136.991 41.4634 135.461 40.8874 134.237 39.7354C133.025 38.5714 132.419 37.0774 132.419 35.2534C132.419 33.4174 133.025 31.9234 134.237 30.7714C135.461 29.6194 136.991 29.0434 138.827 29.0434C141.071 29.0434 142.739 30.0214 143.831 31.9774L141.635 33.0574C141.371 32.5534 140.981 32.1394 140.465 31.8154C139.961 31.4794 139.415 31.3114 138.827 31.3114C137.735 31.3114 136.829 31.6834 136.109 32.4274C135.401 33.1714 135.047 34.1134 135.047 35.2534C135.047 36.3934 135.401 37.3354 136.109 38.0794C136.829 38.8234 137.735 39.1954 138.827 39.1954C139.415 39.1954 139.961 39.0334 140.465 38.7094C140.981 38.3734 141.371 37.9534 141.635 37.4494L143.831 38.5114C142.715 40.4794 141.047 41.4634 138.827 41.4634ZM156.152 41.2474H153.578V36.1894H147.908V41.2474H145.352V29.2414H147.908V33.9574H153.578V29.2414H156.152V41.2474Z" fill="black"/>
<path d="M86.244 66.6565H83.688V54.6505H92.184V56.9005H86.244V59.4205H92.058V61.6705H86.244V66.6565ZM99.6772 66.8725C97.8532 66.8725 96.3472 66.2905 95.1592 65.1265C93.9832 63.9625 93.3952 62.4745 93.3952 60.6625C93.3952 58.8505 93.9832 57.3625 95.1592 56.1985C96.3472 55.0345 97.8532 54.4525 99.6772 54.4525C101.489 54.4525 102.983 55.0405 104.159 56.2165C105.347 57.3805 105.941 58.8625 105.941 60.6625C105.941 62.4625 105.347 63.9505 104.159 65.1265C102.983 66.2905 101.489 66.8725 99.6772 66.8725ZM97.0312 63.4885C97.7032 64.2325 98.5852 64.6045 99.6772 64.6045C100.769 64.6045 101.645 64.2325 102.305 63.4885C102.977 62.7445 103.313 61.8025 103.313 60.6625C103.313 59.5225 102.977 58.5805 102.305 57.8365C101.645 57.0925 100.769 56.7205 99.6772 56.7205C98.5732 56.7205 97.6852 57.0925 97.0132 57.8365C96.3532 58.5805 96.0232 59.5225 96.0232 60.6625C96.0232 61.8025 96.3592 62.7445 97.0312 63.4885ZM117.185 65.5225C116.273 66.4225 114.929 66.8725 113.153 66.8725C111.377 66.8725 110.027 66.4225 109.103 65.5225C108.191 64.6105 107.735 63.3865 107.735 61.8505V54.6505H110.327V61.7785C110.327 62.6425 110.573 63.3325 111.065 63.8485C111.557 64.3525 112.253 64.6045 113.153 64.6045C114.053 64.6045 114.743 64.3525 115.223 63.8485C115.715 63.3325 115.961 62.6425 115.961 61.7785V54.6505H118.571V61.8505C118.571 63.3865 118.109 64.6105 117.185 65.5225ZM131.7 66.6565H129.234L123.51 58.8265V66.6565H120.954V54.6505H123.582L129.144 62.1925V54.6505H131.7V66.6565ZM138.819 66.6565H134.067V54.6505H138.801C140.685 54.6505 142.215 55.2025 143.391 56.3065C144.579 57.4105 145.173 58.8565 145.173 60.6445C145.173 62.4565 144.585 63.9145 143.409 65.0185C142.233 66.1105 140.703 66.6565 138.819 66.6565ZM138.801 64.4065C139.953 64.4065 140.865 64.0465 141.537 63.3265C142.221 62.6065 142.563 61.7125 142.563 60.6445C142.563 59.5525 142.233 58.6585 141.573 57.9625C140.925 57.2545 140.007 56.9005 138.819 56.9005H136.623V64.4065H138.801ZM156.725 66.6565H153.773L151.415 62.3905H149.543V66.6565H146.987V54.6505H152.603C153.839 54.6505 154.823 55.0105 155.555 55.7305C156.287 56.4505 156.653 57.3805 156.653 58.5205C156.653 59.5045 156.389 60.3025 155.861 60.9145C155.345 61.5265 154.727 61.9165 154.007 62.0845L156.725 66.6565ZM152.243 60.1405C152.759 60.1405 153.185 59.9965 153.521 59.7085C153.857 59.4085 154.025 59.0065 154.025 58.5025C154.025 58.0225 153.857 57.6385 153.521 57.3505C153.185 57.0505 152.759 56.9005 152.243 56.9005H149.543V60.1405H152.243ZM164.141 66.6565H161.585V61.7425L156.977 54.6505H159.893L162.863 59.4565L165.833 54.6505H168.731L164.141 61.7425V66.6565Z" fill="black"/>
</svg>
