<svg width="191" height="167" viewBox="0 0 191 167" fill="none" xmlns="http://www.w3.org/2000/svg">
<g clip-path="url(#clip0)">
<path d="M96.509 0C96.5235 0.150266 96.5235 0.301574 96.509 0.45184C96.3631 0.61057 96.1858 0.737305 95.9883 0.824003C95.7907 0.910702 95.5773 0.955471 95.3615 0.955471C95.1457 0.955471 94.9323 0.910702 94.7348 0.824003C94.5372 0.737305 94.3599 0.61057 94.2141 0.45184C94.2141 0.307251 94.2141 0.167181 94.2141 0.022592L96.509 0Z" fill="black"/>
<path d="M94.2276 0.451846H96.5225C98.6681 9.11813 101.085 17.7121 99.4286 26.8483C98.7269 30.7296 99.08 34.7284 100.361 38.8627C102.982 35.8625 105.422 33.0205 107.929 30.2416C108.536 29.5684 108.183 29.2702 107.762 28.7822C104.675 25.2172 104.222 21.372 106.282 17.0841C107.703 14.1336 106.992 11.3547 104.765 8.9871C103.074 7.24234 101.885 5.07404 101.325 2.71104C101.158 1.99714 100.388 0.994054 101.579 0.605472C102.683 0.244 103.932 0.38407 104.322 1.8164C104.774 3.3888 105.68 4.64492 106.734 5.95525C107.807 5.0832 108.287 3.79998 108.975 2.68845C109.13 2.35179 109.4 2.08174 109.737 1.92749C110.075 1.77324 110.456 1.74504 110.813 1.84803C112.112 2.06943 112.574 2.40379 111.917 3.84516C110.41 7.14811 109.409 10.6228 109.844 14.3188C109.905 14.9206 109.819 15.5282 109.595 16.09C107.694 20.8208 109.835 24.3497 113.013 27.8379C114.873 25.4241 115.703 22.3741 115.321 19.3523C114.914 15.462 114.57 11.5716 114.199 7.67676C114.097 6.55499 114.214 5.42429 114.543 4.34671C114.724 3.71865 114.638 2.85563 115.697 3.20355C116.426 3.44303 117.326 3.47465 117.286 4.69462C117.209 7.02612 117.258 9.36213 117.286 11.6981C117.286 12.1138 117.1 12.7103 117.688 12.8277C117.965 12.882 118.363 12.5837 118.635 12.3759C120.355 11.008 121.685 9.21306 122.491 7.1707C123.188 5.36334 124.112 6.58331 124.931 6.86345C125.75 7.14359 126.569 7.46892 125.881 8.75214C124.506 11.4416 122.519 13.7721 120.078 15.5568C119.051 16.2843 118.29 17.0434 118.404 18.4893C118.929 25.1449 116.331 30.4766 111.36 34.8052C110.125 35.8806 109.097 37.1729 107.961 38.3522C111.496 40.9141 117.014 38.1534 117.494 33.775C117.865 30.4359 118.675 27.3137 120.862 24.6117C121.993 23.2155 121.11 21.5573 120.862 20.0301C120.699 19.0631 120.255 18.0555 121.667 17.6489C123.229 17.197 123.215 18.5525 123.428 19.3704C124.22 22.4022 124.786 25.3889 121.903 27.8604C120.875 28.7641 120.744 30.2416 120.481 31.5836C119.517 36.477 117.765 40.8508 112.641 42.8796C109.844 43.9956 107.164 44.0544 104.946 41.7093C104.113 40.8373 103.588 41.1762 102.909 41.8133C99.7047 44.7683 97.7809 51.6995 99.0393 55.9333C99.3382 55.8919 99.6235 55.7823 99.8731 55.613C100.123 55.4438 100.33 55.2194 100.479 54.9573C104.693 48.8665 111.107 45.7488 117.44 42.6266C120.25 41.2439 121.767 39.2468 122.296 36.3415C122.782 33.6843 123.509 31.0769 124.469 28.5518C125.344 26.3031 125.609 23.8641 125.239 21.4805C124.605 17.2422 126.017 13.3202 127.783 9.52931C127.995 9.07747 128.172 8.44941 128.887 8.9374C129.602 9.42538 130.63 9.46153 130.177 10.8532C129.385 13.2751 128.819 15.7737 128.149 18.2363C127.973 18.8824 127.534 19.6731 128.176 20.1249C128.932 20.6581 129.317 19.6731 129.752 19.2981C131.454 17.8115 133.083 16.2436 134.731 14.6938C135.564 13.9076 136.351 13.7495 137.288 14.5899C138.442 15.6246 137.207 16.0268 136.781 16.5147C134.518 19.1264 132.105 21.6251 129.883 24.2774C128.638 25.6961 127.696 27.3524 127.112 29.1459C126.529 30.9393 126.316 32.8325 126.488 34.7103C129.444 33.4949 131.68 31.7327 131.92 28.4885C132.314 23.3692 135.641 20.2876 139.226 17.3461C140.457 16.3385 140.81 17.9109 141.521 18.3402C142.53 18.9592 141.81 19.4788 141.249 19.8403C137.148 22.4745 134.821 26.166 133.898 30.9736C133.364 33.7524 131.295 35.6863 128.959 37.1909C126.085 39.039 123.654 41.3976 121.174 43.7019C120.617 44.217 119.929 44.7638 120.309 45.5635C120.64 46.2503 121.477 46.1871 122.147 46.0786C123.261 45.9024 124.496 45.8979 125.442 45.3783C131.951 41.8042 137.302 37.1909 138.651 29.3741C139.18 26.3106 140.14 23.5589 142.765 21.6431C143.426 21.1642 143.969 20.5678 144.789 21.5844C145.459 22.4113 145.445 22.8902 144.716 23.6448C143.113 25.2314 141.946 27.2028 141.326 29.3696C143.748 29.2295 145.852 28.4162 147.998 27.8107C149.388 27.4176 150.071 27.9101 150.474 28.9494C150.927 30.0925 149.646 30.1558 149.066 30.5127C147.615 31.3246 146.004 31.8118 144.345 31.9406C142.534 32.1529 141.371 33.0882 140.312 34.4754C137.859 37.6925 135.292 40.8282 132.712 44.0725C135.654 44.5243 137.786 43.589 139.339 40.8599C141.394 37.2452 144.472 35.0763 148.306 33.7344C149.243 33.4045 149.795 33.3277 150.243 34.3489C150.768 35.5417 149.79 35.5779 149.175 35.8399C146.288 37.0172 143.969 39.2649 142.706 42.1115C141.299 45.1117 138.814 46.8287 135.464 47.1721C131.494 47.5833 127.52 47.9628 123.546 48.3649C121.971 48.5231 120.377 48.6496 118.893 49.2099C118.069 49.5171 117.589 50.0006 117.87 50.9043C117.908 51.0915 117.986 51.2684 118.099 51.4233C118.211 51.5783 118.354 51.7078 118.52 51.8034C118.686 51.899 118.87 51.9585 119.061 51.9779C119.251 51.9974 119.444 51.9764 119.626 51.9164C120.794 51.6498 121.989 51.4917 123.057 50.8681C125.32 49.5623 127.683 49.7159 130.059 50.4163C130.512 50.5473 131.476 50.4163 131.024 51.4465C130.77 52.0248 130.756 52.8517 129.711 52.5625C126.728 51.7447 124.315 52.9692 121.939 54.6139C119.223 56.4845 117.471 56.1908 115.185 53.787C112.646 51.1257 111.229 50.9449 108.088 52.8833C104.792 54.9121 101.868 58.7392 101.416 61.7484C102.461 61.4005 103.416 61.0752 104.385 60.7679C107.929 59.6519 111.478 59.4666 115.009 60.8086C118.236 62.0376 121.187 61.2062 123.215 58.7708C125.777 55.7028 128.955 54.5642 132.671 54.2524C137.587 53.8412 141.303 51.5414 144.051 47.4387C146.54 43.7336 149.913 40.7785 153 37.5886C153.475 37.1006 154.145 35.849 155.145 37.1367C155.956 38.1714 156.449 39.1519 155.118 40.2273C153.131 41.8404 151.194 43.5122 149.288 45.1975C148.405 45.9837 147.477 46.7745 147.21 48.1616C150.379 47.7324 153.511 47.3076 156.63 46.8919C157.079 46.8192 157.533 46.7829 157.988 46.7835C159.097 46.7835 159.264 47.6872 159.418 48.4915C159.636 49.6798 158.59 49.3951 158.06 49.4539C151.37 50.0794 144.882 52.0792 139.004 55.3278C136.999 56.4077 134.568 56.6833 132.341 57.3837C131.793 57.5508 131.055 57.6141 130.983 58.3461C130.91 59.0781 131.435 59.6022 132.037 59.9501C132.762 60.3568 133.509 60.7544 134.387 60.5239C137.945 59.5841 141.543 58.825 144.531 56.3941C148.365 53.2764 152.823 52.7342 157.558 53.6831C158.161 53.7368 158.726 53.9989 159.156 54.4241C159.355 54.6555 159.488 54.9368 159.539 55.2378C159.59 55.5388 159.558 55.848 159.445 56.1321C159.192 56.7827 158.54 56.4077 158.065 56.3264C154.923 55.7887 151.791 55.382 148.813 56.9951C148.301 57.2707 147.69 57.4695 147.455 58.1202C151.08 60.4563 155.376 61.5332 159.676 61.1836C160.582 61.1204 161.487 60.7002 161.654 62.1732C161.822 63.6462 160.849 63.6597 159.844 63.7817C155.951 64.2336 152.122 63.9353 148.577 62.259C147.379 61.6378 146.059 61.2863 144.71 61.2293C143.361 61.1724 142.016 61.4112 140.769 61.9292C139.588 62.381 138.325 62.6566 137.098 63.0271C134.21 63.8992 131.598 63.6552 129.457 61.2604C128.489 60.1715 127.647 59.9049 126.375 61.1656C122.672 64.7803 118.399 65.9596 113.366 63.854C110.65 62.7063 107.757 63.0226 104.996 64.1341C104.145 64.4775 103.149 64.8345 103.109 65.8285C103.068 66.8226 104.091 67.2609 104.892 67.6721C107.875 69.2128 111.053 69.4794 114.063 68.1239C118.752 66.0002 122.835 66.7684 126.637 69.9584C127.42 70.6226 127.995 70.862 128.901 69.9584C131.852 66.9943 135.496 66.6012 139.131 68.151C142.765 69.7008 146.088 69.9041 149.795 68.1239C152.936 66.6147 156.526 66.7006 160.02 67.0801C161.084 67.1976 161.609 67.5004 161.555 68.7248C161.487 70.2611 160.455 69.6692 159.785 69.6285C155.349 69.2987 151.325 70.4509 147.495 72.7146C149.664 74.6665 151.633 75.2358 155.191 74.9738C155.788 74.9286 156.395 74.671 156.974 74.7433C157.83 74.8518 159.16 73.4466 159.486 75.1952C159.794 76.8354 158.332 77.0342 157.132 77.2782C152.067 78.3038 147.577 76.9754 143.553 73.8939C141.186 72.0865 138.691 70.5955 135.663 70.2792C134.689 70.1153 133.689 70.1945 132.753 70.5096C132.34 70.6937 131.979 70.977 131.703 71.3341C131.426 71.6913 131.243 72.1112 131.168 72.5564C131.064 73.1212 132.074 73.3065 132.599 73.433C138.347 74.7885 143.322 78.1231 148.976 79.7136C151.801 80.4666 154.679 81.0073 157.585 81.3312C158.327 81.4215 159.568 80.8341 159.396 82.5014C159.246 83.857 158.527 84.3314 157.277 84.2004C154.729 83.9338 152.189 83.6401 149.646 83.3644C149.293 83.3238 148.939 83.3102 148.356 83.265C149.539 85.947 151.434 88.2548 153.837 89.9387C154.326 90.2866 154.856 90.5894 155.313 90.9734C156.449 91.9358 155.734 92.9028 155.2 93.7748C154.426 95.04 153.692 93.933 153.253 93.4992C150.202 90.4809 146.88 87.6479 144.549 84.0377C141.475 79.2708 137.202 76.8083 131.68 76.4197C128.348 76.1712 125.678 75.0099 123.532 72.3079C121.518 69.7912 118.666 69.4026 115.751 70.7265C112.302 72.2944 108.844 72.6468 105.209 71.4811C104.489 71.2461 103.502 70.9163 102.946 71.7973C102.711 72.1836 102.57 72.6195 102.535 73.0699C102.499 73.5204 102.57 73.9728 102.742 74.3909C103.054 75.2595 103.548 76.0516 104.191 76.7147C104.834 77.3777 105.612 77.8964 106.471 78.2363C107.331 78.5761 108.253 78.7293 109.176 78.6856C110.1 78.642 111.003 78.4025 111.827 77.983C112.827 77.4679 113.778 76.8534 114.76 76.2932C117.526 74.7162 120.223 74.784 122.776 76.745C124.587 78.1321 126.551 78.9455 128.864 78.5749C129.77 78.4304 130.747 78.5252 130.933 79.4244C131.119 80.3236 130.028 80.2874 129.385 80.5133C127.519 81.1663 125.478 81.1165 123.645 80.3733C122.45 79.9214 121.228 79.5645 120.002 79.2256C119.801 79.1616 119.59 79.1381 119.381 79.1566C119.171 79.175 118.968 79.235 118.782 79.3331C118.596 79.4312 118.431 79.5653 118.298 79.7276C118.165 79.8899 118.065 80.0772 118.005 80.2784C117.802 81.042 118.603 81.5074 119.363 81.7695C122.043 82.6731 124.849 82.7228 127.611 83.0527C129.928 83.3283 132.264 83.4548 134.595 83.6084C138.343 83.8615 141.181 85.4158 142.783 88.9808C143.401 90.3595 144.288 91.6017 145.391 92.635C146.495 93.6683 147.793 94.472 149.211 94.9993C150.252 95.406 150.61 95.7855 150.089 96.9468C149.455 98.3565 148.758 97.4438 148.147 97.1456C146.789 96.4904 145.522 95.6771 144.178 95.0129C142.122 94.0497 140.469 92.4005 139.502 90.3499C138.003 87.2729 135.704 86.2336 132.332 86.821C135.758 89.5908 138.031 93.192 140.57 96.5672C141.01 97.2159 141.576 97.7706 142.233 98.1988C142.891 98.6271 143.627 98.9203 144.399 99.0614C146.59 99.4816 148.713 100.268 150.868 100.896C150.302 102.911 149.315 103.756 147.247 102.897C145.938 102.355 144.49 102.156 143.132 101.723C141.774 101.289 141.552 101.935 141.878 103.015C142.367 104.646 143.453 105.911 144.594 107.113C145.201 107.75 145.744 108.202 144.852 109.128C143.96 110.055 143.381 109.784 142.562 109.165C140.167 107.357 139.045 104.863 138.719 102.016C138.354 98.1602 136.543 94.5839 133.649 92.0036C132.205 90.6888 131.001 89.1119 129.575 87.7925C127.067 85.5017 124.143 84.4534 120.395 85.33C123.134 87.9009 125.601 90.3002 128.163 92.6001C131.06 95.1981 133.468 98.0221 134.446 101.967C135.523 106.336 138.356 109.517 142.344 111.641C140.117 114.288 140.158 114.234 137.619 112.165C134.532 109.648 132.345 106.779 132.015 102.563C131.77 99.4725 129.457 97.6426 126.583 96.0928C126.306 97.7917 126.397 99.5304 126.852 101.191C127.306 102.851 128.113 104.395 129.217 105.717C131.585 108.64 134.142 111.406 136.569 114.279C137.152 114.975 138.216 115.576 136.79 116.76C135.487 117.844 134.889 117.28 134.074 116.385C132.49 114.668 130.874 112.983 129.267 111.288C128.978 110.981 128.742 110.457 128.194 110.728C127.647 110.999 127.959 111.514 127.991 111.934C128.186 114.567 128.942 117.127 130.209 119.444C131.028 120.921 130.073 121.211 129.213 121.816C127.909 122.72 127.855 121.464 127.574 120.872C125.723 117.18 124.659 113.335 125.266 109.124C125.595 106.413 125.132 103.665 123.931 101.212C123.077 99.2907 122.53 97.2477 122.31 95.1575C121.957 92.1166 120.563 89.8709 117.729 88.3799C113.655 86.2607 109.722 83.9112 105.743 81.6339C104.48 80.9064 103.19 80.2784 101.701 80.5314C100.827 80.6805 99.8903 80.9155 99.6141 81.9818C99.338 83.0482 99.759 83.7485 100.442 84.3992C101.927 85.8044 103.874 86.2065 105.757 86.6945C106.347 86.8201 106.944 86.9136 107.545 86.9746C115.692 88.154 118.576 90.7927 120.373 98.8535C120.825 100.936 121.278 102.952 123.089 104.357C123.813 104.913 123.822 105.803 123.749 106.648C123.596 108.455 123.419 110.262 123.265 112.038C123.202 112.775 123.319 113.633 122.102 113.394C121.197 113.204 120.291 112.689 120.64 111.776C121.952 108.283 120.527 105.518 118.693 102.739C117.951 101.61 117.937 100.173 117.752 98.8309C117.073 93.8607 112.773 90.3137 108.015 90.7294C107.323 90.7927 106.467 90.7791 106.205 91.4072C105.892 92.1301 106.499 92.8666 107.038 93.332C108.012 94.1565 109.044 94.9115 110.125 95.5912C115.615 99.1517 118.494 104.136 118.272 110.714C118.195 113.037 118.87 114.736 120.88 116.042C123.143 117.515 124.591 119.738 125.759 122.137C126.126 122.882 126.334 123.56 125.23 123.854C124.424 124.066 123.713 125.313 122.781 123.931C121.645 122.25 120.395 120.641 119.16 119.024C118.82 118.572 118.621 117.763 117.883 117.971C117.145 118.179 117.299 118.96 117.15 119.521C116.594 121.493 116.672 123.59 117.372 125.517C117.933 127.053 117.109 127.166 116.045 127.586C114.389 128.237 114.687 126.913 114.52 126.199C113.615 122.001 113.977 117.808 114.932 113.678C115.81 109.892 115.529 106.386 113.017 102.992C110.134 106.282 107.703 109.54 109.396 114.234C110.025 115.969 109.486 117.826 109.726 119.611C110.066 122.223 110.801 124.769 111.904 127.161C112.121 127.636 112.809 128.417 111.949 128.634C111.089 128.851 110.138 129.805 109.278 128.679C108.862 128.054 108.48 127.407 108.133 126.741C106.847 124.563 106.775 124.563 105.336 126.741C105.047 127.088 104.827 127.487 104.688 127.916C104.236 130.338 102.728 130.668 100.397 129.981C102 126.994 102.878 123.714 105.191 121.188C107.205 118.992 107.612 116.67 106.245 113.959C104.209 109.937 104.634 106.074 107.418 102.554C108.273 101.465 108.323 100.774 107.327 99.7436C104.684 96.9829 102.163 94.1092 99.4738 91.1587C98.1159 94.4842 98.8311 97.6742 99.2565 100.796C100.302 108.478 100.049 116.087 97.876 123.587C97.347 125.167 97.1664 126.843 97.3464 128.499C97.5908 130.139 96.9345 130.649 95.4135 130.663C93.6573 130.663 93.6527 129.493 93.7976 128.354C94.2502 124.699 94.8206 121.061 95.3275 117.411C95.6987 114.731 96.0654 112.047 96.3822 109.359C96.4411 108.844 96.8665 108.003 95.9884 107.854C95.2415 107.746 95.2325 108.609 95.0424 109.16C93.8519 112.544 92.6569 115.938 91.4483 119.344C89.6966 118.477 89.4386 117.203 89.8731 115.653C90.9187 111.894 91.8874 108.112 93.0417 104.38C94.056 101.137 94.195 97.6846 93.4445 94.3713C93.0552 92.6136 92.254 92.0578 90.5883 93.0474C88.5785 94.2357 86.5144 95.3066 84.7038 96.8293C82.8932 98.352 82.7212 99.5674 84.2512 101.253C87.8724 105.202 88.5921 109.427 86.2247 114.297C84.9302 116.954 85.7359 119.457 87.714 121.527C89.5246 123.425 90.8825 125.557 91.4257 128.115C91.5524 128.734 92.7067 129.886 90.973 130.229C89.7237 130.478 88.6509 130.229 88.316 128.842C87.9222 127.22 86.8811 126.063 85.7359 124.776C85.0841 125.86 84.3372 126.827 83.8936 127.916C83.3459 129.271 82.5085 129.294 81.3678 128.874C80.0596 128.39 80.5666 127.446 80.802 126.615C81.0209 125.979 81.2888 125.361 81.6032 124.767C81.6666 124.631 81.8024 124.532 81.8612 124.396C83.8166 119.959 82.6081 115.111 83.6718 110.515C84.1742 108.306 82.3138 106.341 81.0057 104.488C79.9646 103.024 79.3852 103.223 78.5795 104.732C77.2623 107.204 77.0903 109.774 77.6199 112.413C78.5523 117.013 79.0593 121.622 78.3532 126.303C78.249 126.985 78.6791 128.286 77.1853 127.658C76.3479 127.319 74.7455 127.713 75.2978 125.688C76.3343 121.902 76.2031 120.822 75.0398 117.844C72.7222 119.2 71.2511 121.269 70.2643 123.601C69.5491 125.291 68.6393 124.401 67.7928 124.053C66.6838 123.601 66.2991 122.751 67.0505 121.708C68.6393 119.512 70.296 117.356 72.3827 115.594C72.9984 115.097 73.4948 114.468 73.8355 113.754C74.1762 113.04 74.3526 112.26 74.3517 111.469C74.5509 103.295 77.8054 96.8202 84.9618 92.5142C80.7024 90.2324 75.5603 92.8937 75.2118 97.611C74.9945 100.539 74.2476 103.227 72.2967 105.491C71.2556 106.706 71.2646 108.089 71.5679 109.535C71.7399 110.344 71.9029 111.153 72.0206 111.966C72.0705 112.273 71.9974 112.587 71.817 112.841C71.6365 113.095 71.3633 113.267 71.0564 113.321C70.3096 113.547 70.0018 113.077 69.6985 112.472C68.3903 109.793 68.1142 107.018 69.8886 104.56C71.5408 102.301 72.3239 99.7572 72.8761 97.1139C74.0168 91.6512 77.4026 88.4612 82.7258 87.1735C85.7787 86.3741 88.7611 85.3269 91.643 84.0422C92.9059 83.509 94.2185 82.5195 93.7614 81.3628C93.2589 80.0931 91.5932 79.4741 90.0632 80.0389C88.8119 80.5487 87.6013 81.1529 86.442 81.8463C82.4406 84.1055 78.4573 86.3647 74.4558 88.6239C73.5274 89.1299 72.7145 89.823 72.0686 90.6591C71.4226 91.4952 70.9577 92.4562 70.7034 93.4811C69.0014 99.8069 67.0459 106.024 67.4171 112.725C67.571 115.572 66.462 118.332 65.2308 120.939C64.9683 121.5 64.8144 122.372 63.8321 121.843C63.0445 121.427 62.1981 121.125 62.6145 119.846C63.4791 117.207 64.2033 114.523 64.9909 111.857C65.1131 111.442 65.4436 110.99 64.9094 110.669C64.3753 110.348 64.0856 110.755 63.7642 111.08C61.9174 112.96 59.9846 114.763 58.2419 116.737C56.9156 118.228 56.3543 116.737 55.526 116.254C54.3536 115.554 55.2816 115.052 55.7433 114.546C57.6127 112.486 59.4776 110.416 61.3788 108.383C64.1173 105.455 66.2085 102.238 66.3579 98.0673C66.4077 96.7479 66.1271 96.1651 64.7239 96.9829C62.4606 98.3113 60.7858 100.11 60.65 102.821C60.3965 107.954 56.7753 110.759 53.2944 113.633C52.113 114.609 51.7283 112.964 51.0312 112.472C50.2436 111.903 50.8546 111.419 51.3752 111.116C55.6708 108.536 57.83 104.601 58.853 99.8205C59.1054 98.6719 59.5881 97.5863 60.2718 96.6289C60.9556 95.6714 61.8264 94.862 62.8318 94.2493C66.453 91.9901 68.5216 88.3121 71.7399 85.2441C68.8339 84.5257 66.539 85.0543 64.5428 86.6764C61.4123 89.2614 58.5958 92.2033 56.1507 95.4421C54.5483 97.5251 54.5166 100.078 53.9915 102.477C53.394 105.188 52.285 107.606 49.9493 109.286C49.3609 109.711 48.7996 110.267 48.0437 109.354C47.4462 108.627 47.4779 108.121 48.0075 107.393C49.3111 105.586 50.5378 103.756 51.9546 101.691C49.8642 101.529 47.7667 101.897 45.8574 102.762C43.7752 103.607 42.5214 103.259 41.9872 100.927C42.2452 100.801 42.5172 100.706 42.7975 100.643C49.4197 100.046 53.557 95.9482 56.9518 90.7385C57.8571 89.383 58.9163 88.154 60.0525 86.6719C56.7889 86.2653 54.8515 87.7202 53.4257 90.0472C51.3946 93.4352 48.195 95.9672 44.427 97.1682C43.5217 97.4664 43.0057 97.62 42.4625 96.5898C41.7971 95.3246 42.8518 95.3337 43.4221 95.1078C46.3306 93.9849 48.6811 91.7668 49.9674 88.9311C51.6015 85.5649 54.494 83.8976 58.2645 83.5587C63.7371 83.0617 69.2096 82.4969 74.5962 81.3628C75.8726 81.0962 78.0318 80.911 77.5384 79.1036C77.0178 77.2104 75.0081 78.0237 73.623 78.4394C71.0202 79.212 68.4673 80.1654 65.6789 79.5509C65.1312 79.4289 64.321 79.5509 64.321 78.7376C64.3238 78.5645 64.3615 78.3938 64.4319 78.2357C64.5023 78.0775 64.6039 77.9351 64.7307 77.817C64.8574 77.6989 65.0067 77.6075 65.1696 77.5483C65.3326 77.4891 65.5058 77.4633 65.6789 77.4725C68.9607 77.4408 71.7445 75.9543 74.655 74.7208C76.7689 73.8171 78.9552 74.2689 80.9152 75.507C81.739 76.0356 82.5085 76.6501 83.364 77.1245C84.0153 77.506 84.7519 77.7187 85.5067 77.7433C86.2614 77.7679 87.0104 77.6036 87.6853 77.2655C88.3602 76.9273 88.9396 76.4259 89.3707 75.807C89.8018 75.1882 90.071 74.4715 90.1537 73.7222C90.3801 72.1272 89.4205 71.3907 88.0444 71.4946C83.7035 71.8245 79.521 71.0699 75.2978 70.1843C74.0611 69.9227 72.7745 70.0343 71.6016 70.5051C70.4288 70.9758 69.4228 71.7842 68.7117 72.8275C66.8604 75.3443 64.3708 76.1847 61.4693 76.3383C56.0692 76.6275 51.692 78.9229 48.6865 83.3419C46.0656 87.196 42.716 90.3002 39.3935 93.4631C38.968 93.8697 38.3706 95.0626 37.6961 93.942C37.2027 93.1152 35.7497 92.0578 37.4788 90.9328C40.0956 89.2577 42.3004 87.0152 43.9291 84.372C44.1192 84.0648 44.2822 83.735 44.5492 83.247C41.4576 83.5949 38.5652 83.9428 35.6682 84.2275C34.7629 84.3178 33.8259 84.3901 33.5046 83.1611C33.2963 82.3568 33.1515 81.8056 34.3103 81.6339C36.0937 81.3718 37.8364 80.8522 39.6153 80.5495C44.3052 79.8099 48.8145 78.1991 52.9097 75.8006C55.0043 74.5966 57.3277 73.8425 59.7311 73.5866C60.4961 73.4917 61.5915 73.555 61.6413 72.4661C61.6911 71.3771 60.7994 70.7446 59.8035 70.4689C59.2973 70.338 58.7679 70.324 58.2555 70.4283C54.7655 71.106 51.3842 72.0097 48.5144 74.3141C44.6216 77.4499 40.1314 78.1909 35.3061 77.242C34.72 77.1249 34.164 76.8897 33.672 76.5507C33.4273 76.3643 33.2506 76.103 33.1688 75.8068C33.087 75.5105 33.1048 75.1957 33.2194 74.9105C33.4502 74.1785 34.0975 74.4813 34.5773 74.5536C36.2079 74.8533 37.8623 75.0045 39.5203 75.0054C41.7009 74.9213 43.8047 74.1793 45.5541 72.8772C41.6161 70.496 37.601 69.3213 33.1696 69.6014C32.3956 69.6511 31.2911 70.2837 31.1508 68.6977C31.0195 67.2789 32.0561 67.035 33.0066 66.9717C37.343 66.687 41.607 67.1208 45.6084 68.9327C46.3725 69.3219 47.2078 69.5522 48.0636 69.6097C48.9195 69.6672 49.7782 69.5506 50.5876 69.267C52.3574 68.6525 54.2088 68.3182 56.0194 67.7398C58.9073 66.809 61.4105 67.3784 63.4157 69.615C64.5609 70.8937 65.4028 70.7175 66.5254 69.615C69.9791 66.2397 74.0937 65.2773 78.8058 66.2759C81.0969 66.7263 83.4148 67.0282 85.7449 67.1795C86.6502 67.2518 88.1123 67.1389 88.153 66.0545C88.1938 64.9701 86.9626 64.5182 85.7857 64.5815C82.7755 64.7486 79.7654 64.8797 76.7598 65.0333C72.781 65.2412 69.3137 64.0257 66.5118 61.1927C65.4436 60.1128 64.7601 60.0947 63.6284 61.161C60.4056 64.1838 56.5671 64.0122 52.8599 62.4488C49.7592 61.143 47.0614 60.8628 43.8884 62.4488C40.5523 64.1206 36.7546 64.1025 33.0248 63.7772C31.9293 63.6778 31.0467 63.4338 31.1191 62.1099C31.196 60.6324 32.2326 61.1113 33.0836 61.1746C37.5105 61.5044 41.5617 60.3613 45.3957 58.0795C43.1822 55.7073 40.4165 55.757 37.5965 55.9513C36.7682 56.0101 35.9398 56.1366 35.116 56.1275C34.4234 56.1275 33.3416 57.0312 33.1696 55.5492C33.0474 54.4874 33.7716 53.9271 34.7765 53.7147C38.6467 52.8969 42.4353 53.0008 45.9796 54.9302C47.6906 55.861 49.293 56.9906 50.9316 58.0614C53.1062 59.5828 55.6743 60.4457 58.3279 60.5465C59.2333 60.5943 60.1279 60.3312 60.8627 59.801C61.4602 59.3492 61.9265 58.816 61.7409 58.1066C61.5553 57.3972 60.8582 57.4379 60.2245 57.3837C57.1528 56.9987 54.1974 55.9701 51.5517 54.3654C46.6495 51.4917 41.3082 50.1271 35.709 49.6301C34.8399 49.5533 33.3688 50.1768 33.4095 48.3695C33.4502 46.4582 34.8353 46.5305 36.1526 46.666C38.8323 46.9462 41.5074 47.2805 44.4361 47.6239C42.7839 44.3345 40.7605 41.7455 37.7187 40.2137C35.6501 39.1655 37.2027 38.1262 37.5829 37.1593C38.185 35.6502 38.9409 36.9289 39.3935 37.2768C43.2371 40.0915 46.4834 43.6391 48.9445 47.7143C51.3842 51.7357 54.8923 53.7735 59.4414 54.2072C63.3523 54.5777 66.8875 55.3459 69.4903 58.8521C71.2692 61.2424 74.3291 61.5225 77.3392 59.9637C80.3493 58.4048 83.1739 58.2467 86.1795 59.7377C87.2251 60.2528 88.4427 60.5872 89.2077 59.3808C90.0768 58.0479 88.9225 57.3385 88.067 56.6336C86.301 55.1087 84.4266 53.7134 82.4587 52.4586C80.8382 51.4736 79.5663 51.7086 78.2536 53.0505C74.7682 56.6155 73.9398 56.6923 69.7754 53.9949C67.8879 52.7749 65.9279 51.9345 63.6194 52.4134C62.4787 52.6484 61.8495 51.9616 61.0212 51.0805C63.8231 49.856 66.453 49.4765 69.1915 50.6287C70.2178 51.0957 71.2969 51.437 72.4053 51.6453C73.3831 51.7989 74.4604 51.6995 74.6686 50.7416C74.8768 49.7837 73.9489 49.1963 72.9711 49.0382C70.5178 48.6451 68.0735 48.2023 65.6065 47.9131C62.7639 47.5742 59.9077 47.3844 57.056 47.1224C55.617 47.0415 54.2274 46.5704 53.0366 45.76C51.8458 44.9495 50.8989 43.8302 50.2979 42.5226C48.7317 39.3598 46.5273 36.8972 43.1324 35.7451C42.0189 35.3565 42.2679 34.8414 42.5757 34.0778C42.9152 33.2012 43.2546 32.8985 44.1781 33.4633C46.4187 34.8459 48.7046 36.1382 50.9678 37.4575C51.4099 37.679 51.8018 37.9885 52.1194 38.3669C52.4371 38.7454 52.6736 39.1847 52.8146 39.658C53.7199 43.2727 56.386 44.1493 60.1657 44.5153C59.1608 43.1959 58.4365 42.2289 57.6987 41.271C56.8251 40.1414 55.8021 39.0977 55.0824 37.8777C52.5702 33.635 48.8811 31.3306 44.0377 30.6076C43.4312 30.5173 41.6568 30.8923 42.1954 29.1663C42.6481 27.6933 43.6756 27.2731 45.2146 27.9237C47.3523 28.8252 49.6357 29.3334 51.9546 29.4238C50.4789 27.2143 49.2885 25.425 48.0844 23.6448C47.6001 22.9309 47.2334 22.3661 48.0844 21.5211C49.0214 20.5678 49.5646 21.3359 50.1395 21.7561C51.2256 22.5134 52.128 23.5038 52.7804 24.6547C53.4329 25.8057 53.8189 27.0879 53.91 28.4072C54.0376 30.4027 54.5592 32.3534 55.4448 34.147C56.3303 35.9406 57.5625 37.5417 59.0702 38.8582C60.6364 40.2634 62.008 41.881 63.5334 43.336C65.946 45.6449 68.843 46.282 72.4778 45.5952C69.5808 42.9338 66.9464 40.4351 64.2214 38.0404C61.329 35.4965 59.1789 32.6183 58.2691 28.7235C57.2642 24.4084 54.2676 21.4262 50.4699 19.2348C53.1043 16.9756 53.0636 17.0389 55.5622 19.0767C58.5497 21.5166 60.4735 24.4129 60.7677 28.4252C60.9623 31.073 62.8408 32.8262 65.1222 34.0958C66.0003 34.5838 66.3489 34.3172 66.4077 33.3819C66.5336 31.2703 66.0109 29.1706 64.9094 27.3634C62.5285 23.2969 59.1291 20.0572 56.0239 16.5825C55.5713 16.0539 54.2133 15.6788 55.535 14.5267C56.5535 13.623 57.0786 13.7495 57.9748 14.7255C59.5953 16.5012 61.424 18.0872 63.1894 19.7273C63.547 20.0527 63.8729 20.6762 64.4975 20.3554C65.1222 20.0346 64.8144 19.411 64.8099 18.9321C64.696 16.2918 63.9394 13.7189 62.6054 11.4361C61.8269 9.99922 62.705 9.68293 63.6013 9.1091C64.8099 8.33193 64.9592 9.37116 65.3032 10.0128C67.0469 13.2032 67.8194 16.8323 67.5258 20.4548C67.227 24.196 67.7023 27.7972 69.4314 31.186C70.3096 32.9075 70.2688 34.8369 70.5857 36.6804C70.7639 37.9119 71.246 39.0799 71.9888 40.0792C72.7315 41.0785 73.7115 41.8778 74.8406 42.4052C77.4479 43.7607 79.9782 45.2337 82.6216 46.4988C85.7266 47.9226 88.2967 50.2965 89.9591 53.2764C90.5659 54.414 91.5385 55.3148 92.7203 55.8338C94.4947 51.9661 93.1277 44.6101 90.1311 41.7048C89.4521 41.0497 88.9814 40.9051 88.0353 41.4925C82.3546 45.0349 76.6648 43.1462 74.1209 36.9063C73.5119 35.2919 72.9891 33.6464 72.5547 31.9767C72.0161 30.0971 71.4593 28.362 69.9565 26.8574C68.2817 25.2081 68.422 20.143 69.7845 18.0736C69.9101 17.8467 70.1127 17.6721 70.3558 17.5809C70.5989 17.4898 70.8666 17.4883 71.1108 17.5766C71.835 17.7257 72.2424 18.2317 72.0432 18.8734C70.1647 24.9461 75.1122 29.4103 75.8817 34.9317C76.443 38.9983 81.7661 40.5617 85.0795 38.2754C83.7759 36.9741 82.5764 35.5914 81.1958 34.4212C76.4837 30.4088 73.9851 25.4341 74.3517 19.1851C74.4256 18.4392 74.3008 17.6871 73.9901 17.0047C73.6793 16.3224 73.1935 15.7341 72.5819 15.2993C70.5689 13.7063 68.8185 11.8081 67.3945 9.6739C66.8241 8.8154 65.9913 7.90268 67.3945 7.02612C68.5261 6.31673 69.4359 6.08177 70.3593 7.51862C71.6539 9.52931 73.2065 11.3683 74.8361 13.5281C75.9948 11.0882 76.3887 8.72051 75.6418 6.47035C74.7772 3.88131 75.9405 3.19903 78.1223 2.94148C79.1453 8.13312 78.7832 13.2299 77.7013 18.3266C77.0184 21.214 77.4858 24.2532 79.005 26.8031C79.5708 27.7656 79.9555 27.7068 80.6074 26.9161C83.0743 23.8617 84.6586 20.6717 83.3233 16.5238C82.4587 13.8127 83.3233 10.808 82.2686 8.06987C81.8159 6.88153 81.3904 5.67963 80.9604 4.48226C80.6345 3.57858 80.0551 2.53935 81.3678 1.97906C82.5402 1.48204 83.5043 1.62211 84.0022 3.1177C84.3191 4.08012 85.0252 4.92506 85.6544 5.97333C86.9445 4.79855 87.972 3.71413 88.3069 2.08299C88.5197 1.06183 89.2122 0.591916 90.2352 0.506067C91.4529 0.402144 92.0458 0.614509 91.6656 2.1101C91.099 4.61362 89.883 6.92445 88.1395 8.81088C85.7223 11.3638 84.9709 13.9393 86.5914 17.3958C88.4654 21.3675 87.8905 25.3392 84.9935 28.7867C84.3644 29.5277 84.0882 30.0157 84.8849 30.8381C87.3337 33.3639 89.7102 35.9619 92.2088 38.6278C93.6618 33.1334 93.9741 27.8695 91.7788 22.6462C90.7241 20.1385 90.4208 17.4139 89.7826 14.7932C89.6842 14.4274 89.666 14.0447 89.7293 13.6711C89.7926 13.2976 89.9358 12.9422 90.1492 12.6289C90.448 12.1771 90.8056 11.7027 91.3487 11.6891C92.1545 11.6891 91.9055 12.4346 92.0187 12.882C92.7972 15.9951 93.5939 19.0993 95.3864 22.0182C96.4954 19.9894 96.1423 18.051 95.839 16.1442C95.2053 11.9828 94.4811 7.83491 93.8881 3.66895C93.7659 2.59808 93.3857 1.43234 94.2276 0.451846Z" fill="black"/>
<path d="M56.0058 164.203C52.792 168.012 45.269 167.474 42.3494 164.131C39.294 160.629 39.4479 154.15 42.802 150.946C45.6266 148.235 50.7958 147.729 54.1183 149.88C54.7022 150.259 56.0239 150.711 55.2725 151.497C54.4532 152.356 54.1273 154.574 51.9818 153.404C49.9313 152.279 47.8808 152.369 46.1426 154.001C44.5176 155.532 44.1736 157.489 44.8978 159.594C45.7216 161.998 48.5824 163.661 50.9135 162.414C53.6702 160.918 54.7203 162.441 56.0058 164.203Z" fill="black"/>
<path d="M0.47467 160.033V155.356C1.7783 149.482 8.83965 146.518 13.9546 149.78C14.5476 150.16 16.0911 150.558 15.1903 151.588C14.4163 152.455 14.1266 154.62 11.8498 153.395C8.36437 151.543 4.72958 153.707 4.60737 157.498C4.4761 161.659 8.31005 164.095 12.0489 161.985C14.4163 160.652 14.7648 162.965 15.6249 163.792C16.4849 164.619 14.9459 165.147 14.3167 165.554C8.93923 168.956 1.7783 166.092 0.47467 160.033Z" fill="black"/>
<path d="M25.968 157.575C25.968 155.392 25.9272 153.21 25.9951 151.032C25.9951 150.372 25.4881 149.225 26.5247 149.139C27.688 149.035 29.2406 148.325 30.0328 149.591C30.6619 150.621 30.8158 150.124 31.3907 149.726C33.74 148.113 36.1707 148.289 38.6331 149.482C40.2808 150.277 39.2261 151.262 38.7327 152.017C38.28 152.677 38.6241 154.321 36.7546 153.526C32.9207 151.9 30.4175 153.68 30.4175 157.841C30.4175 160.245 30.327 162.658 30.4175 165.071C30.5126 167.023 29.132 166.349 28.2855 166.318C27.4391 166.286 25.8503 167.122 25.9182 165.025C26.0313 162.54 25.968 160.055 25.968 157.575Z" fill="black"/>
<path d="M106.096 151.958C107.658 150.042 109.197 149.202 111.039 148.854C115.647 147.978 119.377 150.792 119.581 155.46C119.716 158.623 119.662 161.786 119.667 164.949C119.667 165.55 119.961 166.367 118.811 166.376C117.743 166.376 117.851 165.685 117.851 165.021C117.851 162.161 117.901 159.301 117.851 156.436C117.761 152.672 116 150.702 112.732 150.562C109.355 150.426 106.716 152.532 106.422 155.984C106.169 158.898 106.318 161.858 106.255 164.781C106.255 165.441 106.612 166.408 105.349 166.39C104.086 166.372 104.444 165.387 104.444 164.741C104.417 157.665 104.417 150.586 104.444 143.504C104.444 142.863 104.014 141.823 105.299 141.837C106.585 141.851 106.069 142.908 106.083 143.518C106.132 146.116 106.096 148.732 106.096 151.958Z" fill="black"/>
<path d="M62.1845 154.136C62.1845 157.674 62.0578 161.212 62.2298 164.741C62.3384 166.846 61.0303 166.286 59.9303 166.358C58.7082 166.44 57.8798 166.449 57.907 164.682C58.0292 157.615 58.0428 150.544 57.907 143.477C57.8662 141.358 59.1291 141.955 60.211 141.873C61.4195 141.787 62.3203 141.751 62.2343 143.536C62.0623 147.065 62.1845 150.603 62.1845 154.136Z" fill="black"/>
<path d="M177.008 151.543C179.48 149.121 182.101 148.244 185.192 149.003C187.931 149.681 189.823 151.606 190.199 154.425C190.674 158.017 190.366 161.632 190.443 165.233C190.443 165.916 190.343 166.399 189.474 166.376C188.605 166.354 188.61 165.748 188.61 165.138C188.61 162.427 188.646 159.716 188.61 157.005C188.537 152.622 186.74 150.526 183.155 150.539C179.493 150.539 177.081 153.129 177.022 157.136C176.986 159.766 177.022 162.396 177.022 165.03C177.022 165.748 177.049 166.385 176.017 166.358C174.985 166.331 175.198 165.694 175.198 165.116C175.198 157.751 175.198 150.386 175.198 143.021C175.198 142.438 175.066 141.801 176.026 141.783C177.067 141.783 177.022 142.415 177.022 143.138C177.008 145.813 177.008 148.493 177.008 151.543Z" fill="black"/>
<path d="M137.32 164.086C135.079 166.345 132.467 167.108 129.439 166.44C125.818 165.635 123.727 163.123 123.677 159.427C123.632 156.422 123.654 153.413 123.677 150.39C123.677 149.785 123.387 149.012 124.546 148.99C125.705 148.967 125.451 149.695 125.479 150.345C125.479 153.201 125.456 156.061 125.479 158.93C125.519 162.405 127.429 164.547 130.68 164.84C134.025 165.143 136.636 163.327 137.32 160.109C137.981 156.987 137.447 153.815 137.628 150.671C137.664 150.047 137.175 149.048 138.483 149.035C139.791 149.021 139.416 149.966 139.42 150.634C139.42 155.153 139.47 159.671 139.393 164.162C139.393 164.885 140.122 166.16 138.633 166.327C136.836 166.521 138.044 164.872 137.32 164.086Z" fill="black"/>
<path d="M17.8202 157.466C17.8202 155.144 17.9244 152.812 17.7886 150.499C17.6754 148.506 19.0333 149.012 20.0201 149.066C20.9254 149.112 22.3513 148.298 22.3105 150.39C22.2049 155.258 22.2049 160.128 22.3105 164.998C22.3558 167.095 20.9254 166.268 20.0201 166.318C19.0288 166.376 17.6844 166.869 17.7931 164.881C17.9244 162.414 17.8202 159.951 17.8202 157.466Z" fill="black"/>
<path d="M165.285 166.508C161.27 166.476 158.155 164.352 156.956 160.828C155.652 156.996 156.893 152.645 159.903 150.49C162.913 148.335 167.516 148.285 170.499 150.422C170.952 150.743 171.984 150.874 171.405 151.854C170.825 152.835 170.277 152.333 169.594 151.854C166.878 150.047 164.04 150.047 161.329 151.732C158.617 153.418 157.997 156.079 158.45 159.048C159.201 164.162 164.787 166.471 169.408 163.607C170.042 163.214 170.64 162.292 171.373 163.471C172.106 164.65 170.87 164.7 170.404 165.053C168.919 166.117 167.109 166.632 165.285 166.508V166.508Z" fill="black"/>
<path d="M94.7391 166.507C90.7105 166.507 87.4967 164.429 86.2564 160.991C84.9437 157.313 86.0301 152.993 88.8501 150.716C91.6701 148.438 96.4365 148.203 99.4512 150.214C100.003 150.576 101.262 150.802 100.637 151.89C99.9762 153.088 99.2792 152.076 98.6455 151.701C95.409 149.794 91.403 150.314 89.1851 152.943C88.1 154.306 87.5143 155.998 87.525 157.739C87.5357 159.479 88.1422 161.164 89.2439 162.513C91.5434 165.138 95.4497 165.577 98.6952 163.561C99.3561 163.15 100.022 162.323 100.678 163.503C101.284 164.587 100.117 164.723 99.6277 165.075C98.2057 166.087 96.4836 166.592 94.7391 166.507V166.507Z" fill="black"/>
<path d="M145.902 151.109C147.957 148.886 150.641 148.398 153.597 149.188C154.086 149.32 155.118 149.329 154.797 150.413C154.475 151.497 153.792 151.118 153.054 150.914C149.111 149.817 145.812 152.247 145.671 156.377C145.59 159.156 145.671 161.935 145.64 164.718C145.64 165.369 146.024 166.336 144.734 166.363C143.444 166.39 143.793 165.459 143.788 164.772C143.788 160.186 143.757 155.605 143.788 151.023C143.788 150.327 143.236 149.161 144.54 149.062C146.319 148.926 144.952 150.49 145.902 151.109Z" fill="black"/>
<path d="M17.5124 144.042C17.7206 142.357 18.7255 141.67 20.2872 141.783C21.8488 141.896 22.7315 142.854 22.6364 144.431C22.5278 146.161 21.4097 146.938 19.7576 146.789C18.1054 146.64 17.4672 145.56 17.5124 144.042Z" fill="black"/>
<path fill-rule="evenodd" clip-rule="evenodd" d="M74.5515 159.273C75.1038 159.276 75.6557 159.278 76.2076 159.278C76.697 159.278 77.1864 159.275 77.6758 159.271C78.997 159.263 80.3182 159.254 81.6394 159.31C82.6578 159.332 83.106 159.057 83.192 157.954C83.536 153.504 81.1686 149.884 77.1219 148.827C72.2333 147.557 67.5031 149.627 65.7785 153.797C64.1309 157.778 65.3304 162.771 68.4718 165.03C71.9029 167.497 78.0997 167.361 81.232 164.822C82.0106 164.19 82.0196 163.819 81.3225 163.078C80.1728 161.849 79.3535 161.085 77.4569 162.174C75.0352 163.566 71.7037 162.784 70.4182 161.063C70.3713 161 70.3203 160.936 70.2685 160.871C69.99 160.524 69.6873 160.146 69.8705 159.662C70.0569 159.142 70.5005 159.199 70.9014 159.249C71.0163 159.264 71.1276 159.278 71.2284 159.278C72.3393 159.263 73.4461 159.268 74.5515 159.273ZM78.7671 155.904C78.7788 156.07 78.6434 156.204 78.4777 156.204H74.5072L70.5367 156.204C70.371 156.204 70.2356 156.07 70.2472 155.904C70.2794 155.446 70.3855 154.996 70.5617 154.57C70.7763 154.052 71.0909 153.581 71.4875 153.185C71.884 152.788 72.3548 152.473 72.8729 152.259C73.391 152.044 73.9464 151.934 74.5072 151.934C75.068 151.934 75.6233 152.044 76.1414 152.259C76.6595 152.473 77.1303 152.788 77.5269 153.185C77.9234 153.581 78.238 154.052 78.4526 154.57C78.6289 154.996 78.7349 155.446 78.7671 155.904Z" fill="black"/>
</g>
<defs>
<clipPath id="clip0">
<rect width="190" height="167" fill="white" transform="translate(0.47467)"/>
</clipPath>
</defs>
</svg>
