<svg width="141" height="48" viewBox="0 0 141 48" fill="none" xmlns="http://www.w3.org/2000/svg">
<path d="M134.8 47.9C130.6 45.6 126.3 43.9 121.9 42.4C112.6 39.5 103.1 38.7 93.5 39.3C84.7 39.9 76.1 41.8 67.7 44.1C59.3 46.3 50.7 47.6 42.1 47.3C32 47.1 22.4 44.8 14 39C8.59999 35.3 4.29999 30.5 1.29999 24.7C0.899988 24 0.699988 23.2 0.299988 22.4C0.799988 22.2 0.79999 22.6 0.89999 22.8C7.19999 31.7 16 36.7 26.6 38.9C35.1 40.6 43.6 40.2 52.1 38.8C58 37.8 63.8 36 69.7 34.6C79 32.5 88.4 31.5 97.9 32.4C111.4 33.7 123.6 38.3 134.2 47.1C134.4 47.3 134.6 47.5 134.8 47.7C134.8 47.6 134.8 47.7 134.8 47.9Z" fill="#0054B4"/>
<path d="M85.5 27.8C88.4 25.7 89.5 23 88.7 19.6C87.9 16.2 84.9 14.1 81.3 14.1C78.1 14.2 75.4 16.6 74.7 20C74 23.3 75.7 26.7 78.7 28.2C79 28.4 79.3 28.4 79.7 28.6C79.1 29 78.4 28.9 77.8 29C75.5 29.4 73.2 29.7 70.9 30.3C70.3 30.5 70.1 30.2 69.8 29.8C63.6 21 68.8 9 79.3 7.3C87 6.1 93.9 10.6 95.8 17.8C96.7 21 96.4 24.3 95.1 27.4C94.9 27.9 94.7 28.1 94.1 28.1C91.7 28 89.3 28.1 87 28.1C86.4 28 85.9 28.4 85.5 27.8Z" fill="#FE0000"/>
<path d="M28.9 7C30.8 7 32.3 7 33.8 7C34.4 7 34.7 7.1 34.6 7.8C34.4 11.7 31.8 14.1 27.9 14.1C27.2 14.1 26.5 14.1 25.8 14.1C21.8 14.1 18.5 17.3 18.5 21.4C18.5 25.5 21.7 28.7 25.8 28.7C26.8 28.7 27.9 28.7 28.8 28.7C32 28.9 34.7 31.9 34.5 35.2C34.4 35.9 33.9 35.7 33.7 35.6C31.1 35.4 28.5 35.1 25.9 34.6C22.2 33.8 18.5 32.5 15 30.9C14.4 30.7 14 30.3 13.7 29.8C7.40001 21.3 12.9 8.6 23.4 7.2C25.4 7 27.3 7.1 28.9 7Z" fill="#FE0000"/>
<path d="M121.8 34.9C118.2 33.2 114.5 31.7 110.7 30.6C107.5 29.7 104.4 29 101.1 28.6C100.5 28.5 100.2 28.3 100 27.8C99.1 26.1 98.6 24.3 98.6 22.4C98.5 15.3 98.6 8.10001 98.5 0.900012C98.5 0.300012 98.7 0.200012 99.3 0.200012C103.1 0.400012 105.9 3.10001 105.9 6.90001C105.9 11.6 105.9 16.3 105.9 21C105.9 25.5 109 28.6 113.5 28.6C114.8 28.6 116.1 28.4 117.4 28.8C120 29.7 121.8 32.1 121.8 34.9Z" fill="#FE0000"/>
<path d="M127.5 23.4C127.5 23.1 127.5 22.8 127.5 22.4C127.4 20.8 128.1 19.7 129.4 19C130.7 18.3 132.1 18.4 133.3 19.4C133.7 19.7 133.9 19.6 134.3 19.3C135.5 18.4 136.8 18.3 138.1 19C139.4 19.7 140.1 20.9 140.1 22.4C140.1 23.3 140.1 24.1 140.1 25C140.1 25.7 139.8 25.7 139.3 25.5C138.6 25.2 138.3 24.7 138.3 23.9C138.3 23.3 138.3 22.7 138.3 22.2C138.3 21.1 137.6 20.4 136.6 20.3C135.6 20.2 134.8 21 134.8 22.1C134.7 23.1 134.8 24.1 134.8 25C134.8 25.6 134.6 25.6 134.1 25.5C133.4 25.3 133 24.8 133 24C133 23.3 133 22.6 132.9 21.9C132.8 20.9 132 20.2 131.2 20.2C130.2 20.2 129.5 20.9 129.5 21.9C129.5 22.5 129.5 23.1 129.5 23.6C129.5 24.2 129.3 24.6 128.9 25C128.6 25.2 128.3 25.5 127.9 25.4C127.4 25.2 127.7 24.8 127.7 24.5C127.5 24.3 127.5 23.8 127.5 23.4Z" fill="#0054B4"/>
<path d="M121.4 23.4C121.4 22.9 121.4 22.5 121.4 22.1C121.5 20.2 122.9 18.8 124.7 18.6C125.2 18.6 125.7 18.5 126.1 18.6C126.4 18.6 126.9 18.4 127 18.8C127.1 19.2 126.9 19.5 126.6 19.8C126.2 20.2 125.7 20.2 125.3 20.3C123.7 20.4 123.2 20.9 123.1 22.6C123.1 23.2 123.1 23.6 123.1 24.2C123.1 24.7 122.9 25.1 122.5 25.4C122.2 25.6 121.8 25.9 121.5 25.7C121.2 25.5 121.3 25.1 121.3 24.8C121.4 24.3 121.4 23.8 121.4 23.4Z" fill="#0054B4"/>
<path d="M125.6 21.3C125.8 21.3 125.9 21.3 126.2 21.3C126.5 21.4 127.1 21.1 127.2 21.5C127.3 21.9 127 22.4 126.6 22.7C125.8 23.2 124.9 23.1 124.1 22.9C123.7 22.8 123.7 22.4 123.7 22C123.8 21.6 124 21.4 124.4 21.4C124.8 21.2 125.2 21.3 125.6 21.3Z" fill="#0054B4"/>
<path d="M85.5 27.8C86 28.2 86.5 27.8 87 28C86.4 28.2 85.7 28.1 84.9 28.2C85.1 27.9 85.2 27.8 85.5 27.8Z" fill="#FE0000"/>
<path fill-rule="evenodd" clip-rule="evenodd" d="M59 33.1C62.8 30.1 64.9 26.3 64.9 20.7C64.9 14.3 59.5 8.20002 52.2 7.30002C45 6.30002 38 10.9 36.2 17.9C34.4 25.1 38.1 32.4 45.1 35.1C46 35.4 46.7 35.6 47.7 35.4C51.2 34.9 54.7 34.3 58.1 33.5C58.5 33.4 58.8 33.3 59 33.1ZM50.3 28.8C54.3 28.8 57.5 25.5 57.5 21.5C57.5 17.4 54.3 14.2 50.4 14.1C46.4 14.1 43.2 17.4 43.2 21.5C43.2 25.6 46.3 28.8 50.3 28.8Z" fill="#FE0000"/>
</svg>
